<svg width="40" height="40" viewBox="0 0 40 40" fill="none" xmlns="http://www.w3.org/2000/svg">
<circle cx="20" cy="20" r="20" fill="#FFE6D8"/>
<path d="M9.05235 11.1042C8.77125 11.2046 8.41987 11.5258 8.2994 11.7869C8.199 12.0077 8.18896 12.3189 8.18896 18.965V25.9123L8.37971 26.2134C8.52026 26.4544 8.6307 26.5548 8.87164 26.6752L9.17282 26.8359H10.6386H12.1043L14.7045 28.6229C16.2606 29.6971 17.3148 30.3898 17.3248 30.3396C17.3348 30.2995 17.5155 29.4963 17.7264 28.5627L18.1079 26.866L24.5732 26.8359C30.4463 26.8058 31.0486 26.7957 31.2092 26.7154C31.4502 26.5949 31.6811 26.3439 31.8116 26.093C31.912 25.8922 31.922 25.6512 31.922 18.955C31.922 12.3491 31.912 12.0077 31.8116 11.7869C31.6811 11.5058 31.3096 11.1845 31.0185 11.0941C30.6671 10.9938 9.32341 11.0038 9.05235 11.1042ZM30.5868 18.9349V25.5408L23.8002 25.5508L17.0136 25.5709L16.7325 26.9463L16.4514 28.3217L14.9455 27.1772C14.1222 26.5447 13.299 25.9323 13.1283 25.7918L12.8171 25.5508H11.1606H9.50412V18.9449V12.329H20.0455H30.5868V18.9349Z" fill="#F27A1A"/>
<path d="M14.4937 17.6698C13.9115 17.7702 13.4697 18.3123 13.4697 18.9348C13.4697 19.3665 13.6103 19.6677 13.9215 19.9287C14.4737 20.4106 15.317 20.3403 15.7788 19.7881C16.5619 18.8244 15.7286 17.4389 14.4937 17.6698Z" fill="#F27A1A"/>
<path d="M19.7645 17.6599C19.0216 17.8005 18.5297 18.7342 18.8208 19.4269C19.0216 19.8987 19.5537 20.2601 20.0557 20.2601C20.5476 20.2601 21.0897 19.8987 21.2905 19.4269C21.411 19.1257 21.3909 18.6739 21.2202 18.3527C20.9391 17.8105 20.387 17.5495 19.7645 17.6599Z" fill="#F27A1A"/>
<path d="M25.0852 17.6498C23.8403 17.8908 23.6295 19.5974 24.774 20.1295C25.2659 20.3604 25.7679 20.2902 26.1695 19.9287C26.9827 19.236 26.6413 17.9008 25.5972 17.6598C25.4567 17.6297 25.3262 17.5996 25.3161 17.5996C25.296 17.6096 25.1956 17.6297 25.0852 17.6498Z" fill="#F27A1A"/>
</svg>
